<svg xmlns="http://www.w3.org/2000/svg" width="16" height="16" viewBox="0 0 16 16"><rect data-element="frame" x="0" y="0" width="16" height="16" rx="4" ry="4" stroke="none" fill="#5e7af7"></rect><g class="nc-icon-wrapper" transform="translate(3.2 3.2) scale(0.6)" fill="#ffffff"><path d="M11.349,3.794,8,7.143,4.651,3.794A2.219,2.219,0,1,1,8,.9a2.219,2.219,0,1,1,3.349,2.893Z" data-color="color-2"></path><path d="M6,11H2V6H0V16H2V13H5v3H7V12A1,1,0,0,0,6,11Z" fill="#ffffff"></path><path d="M14,6v5H10a1,1,0,0,0-1,1v4h2V13h3v3h2V6Z" fill="#ffffff"></path><path d="M11,10H5A1,1,0,0,1,5,8h6a1,1,0,0,1,0,2Z" fill="#ffffff"></path></g></svg>